<svg id="Ebene_1" data-name="Ebene 1" xmlns="http://www.w3.org/2000/svg" viewBox="0 0 797.97 702.2"><defs><style>.cls-1{fill:none;stroke:#000;stroke-miterlimit:10;stroke-width:32px;}</style></defs><path class="cls-1" d="M410,807.59c145-35.86,206.23-45,295.24-102.58s156-156.34,141.29-258.68c-4.66-32.31-18.14-64.93-44.23-86.68S735.89,329.74,706.46,346C662.22,370.4,662.94,431.33,677,478.67c25.26,84.89,75.48,162.75,95,248.87S769,918.44,685.89,955.81c-32.72,14.73-76.81,15-101.94-10.66-32-32.57-14.93-87.66,20-115.93s81.73-38.9,123.91-56.47C832.12,729.31,887.92,632.1,921.93,534.1c4.84-14,14.54-27.82,13-13.12C924,624.14,920.33,725.7,941.67,829.92c.31,1.53-2.39,1.66-2.7.13-21.57-105.36-31.3-216.81-11.29-321.6C939,449.4,949,380.14,996.36,334.88c41.17-39.36,114.15-55.19,159.89-18.67,53.19,42.48,35,129.85-19.52,168.53s-138.86,37-207.57,30.81" transform="translate(-406.11 -279.66)"/></svg>